# This file uses centimeters as units for non-parametric coordinates.

mtllib fissure.mtl
g default
v -3.307229 -0.054813 3.307229
v 3.238027 -0.054813 3.019512
v -3.307229 0.054813 3.307229
v 3.238027 0.054813 3.019512
v -2.814321 0.054813 -2.730640
v 3.307229 0.054813 -3.307229
v -2.814321 -0.054813 -2.730640
v 3.307229 -0.054813 -3.017650
v -4.182589 0.054813 3.500103
v 2.598666 0.054813 1.906536
v 2.598666 -0.054813 1.906538
v -4.182589 -0.054813 3.500105
v -3.800336 0.054813 2.228979
v 3.739164 0.054813 2.345655
v 3.739164 -0.054813 2.345658
v -3.800336 -0.054813 2.228983
v -4.599799 0.054813 2.043096
v 3.307229 0.054813 1.780815
v 3.307229 -0.054813 1.780818
v -4.599799 -0.054813 2.043100
v -3.553782 0.054813 1.241691
v 4.871157 0.054813 1.873522
v 4.871157 -0.054813 1.873525
v -3.553782 -0.054813 1.241693
v -4.599799 0.054813 0.544279
v 3.046651 0.054813 0.740801
v 3.046651 -0.054813 0.740803
v -4.599799 -0.054813 0.544283
v -3.307229 0.054813 0.254403
v 4.871157 0.054813 0.374705
v 4.871157 -0.054813 0.374708
v -3.307229 -0.054813 0.254405
v -4.364020 0.054813 -0.242426
v 3.220370 0.054813 -0.261870
v 3.220370 -0.054813 -0.261869
v -4.364020 -0.054813 -0.242424
v -3.060675 0.054813 -0.732887
v 4.871157 0.054813 -1.124114
v 4.871157 -0.054813 -1.124112
v -3.060675 -0.054813 -0.732886
v -4.364020 0.054813 -1.741245
v 3.394089 0.054813 -1.264543
v 3.394089 -0.054813 -1.264541
v -4.364020 -0.054813 -1.741244
v -2.814121 0.054813 -1.720176
v 4.871157 0.054813 -2.622931
v 4.871157 -0.054813 -2.622930
v -2.814122 -0.054813 -1.720175
v -3.609727 0.054813 -2.652520
v 3.567807 0.054813 -2.267212
v 3.567807 -0.054813 -2.267212
v -3.609727 -0.054813 -2.652520
v -3.609727 0.054813 -2.658426
v 4.453563 0.054813 -3.284268
v 4.453563 -0.054813 -3.284268
v -3.609727 -0.054813 -2.658426
v -3.433180 -0.054813 4.249513
v -0.000000 0.000000 0.000001
v -3.367455 -0.054813 -3.911864
v -3.367455 0.054813 -3.911864
v -3.433180 0.054813 4.249513
v -2.260712 -0.054813 3.649029
v -2.289619 -0.054813 -3.307229
v -2.289619 0.054813 -3.307229
v -2.260712 0.054813 3.649029
v -2.622930 -0.054813 4.871157
v -1.976547 -0.054813 -4.560284
v -1.976547 0.054813 -4.560284
v -2.622930 0.054813 4.871157
v -1.257558 -0.054813 3.478129
v -1.043177 -0.054813 -3.017650
v -1.043177 0.054813 -3.017650
v -1.257558 0.054813 3.478129
v -1.124114 -0.054813 4.871157
v -0.992041 -0.054813 -3.017650
v -0.992041 0.054813 -3.017650
v -1.124114 0.054813 4.871157
v -0.254403 -0.054813 3.307229
v -0.459761 -0.054813 -3.831516
v -0.459761 0.054813 -3.831516
v -0.254403 0.054813 3.307229
v 0.374703 -0.054813 4.871157
v 0.254401 -0.054813 -3.017650
v 0.254401 0.054813 -3.017650
v 0.374703 0.054813 4.871157
v 0.748754 -0.054813 3.136329
v 0.967727 -0.054813 -4.288392
v 0.967727 0.054813 -4.288392
v 0.748754 0.054813 3.136329
v 1.873523 -0.054813 4.871157
v 1.272012 -0.054813 -3.017650
v 1.272012 0.054813 -3.017650
v 1.873523 0.054813 4.871157
v 1.751909 -0.054813 2.965428
v 1.897987 -0.054813 -3.887049
v 1.897987 0.054813 -3.887049
v 1.751909 0.054813 2.965428
v 2.240346 -0.054813 3.844472
v 2.289619 -0.054813 -3.017650
v 2.289619 0.054813 -3.017650
v 2.240346 0.054813 3.844472
v 2.089862 -0.054813 2.415341
v 3.704154 -0.054813 -4.033677
v 3.704154 0.054813 -4.033677
v 2.089862 0.054813 2.415341
vt 0.375000 0.000000
vt 0.625000 0.000000
vt 0.375000 0.250000
vt 0.625000 0.250000
vt 0.375000 0.500000
vt 0.625000 0.500000
vt 0.375000 0.750000
vt 0.625000 0.750000
vt 0.375000 1.000000
vt 0.625000 1.000000
vt 0.875000 0.000000
vt 0.875000 0.250000
vt 0.125000 0.000000
vt 0.125000 0.250000
vt 0.355769 0.250000
vt 0.375000 0.269231
vt 0.625000 0.269231
vt 0.644231 0.250000
vt 0.625000 0.980769
vt 0.644231 0.000000
vt 0.355769 0.000000
vt 0.375000 0.980769
vt 0.336538 0.250000
vt 0.375000 0.288462
vt 0.625000 0.288462
vt 0.663461 0.250000
vt 0.625000 0.961539
vt 0.663462 0.000000
vt 0.336539 0.000000
vt 0.375000 0.961539
vt 0.317308 0.250000
vt 0.375000 0.307692
vt 0.625000 0.307692
vt 0.682692 0.250000
vt 0.625000 0.942308
vt 0.682692 0.000000
vt 0.317308 0.000000
vt 0.375000 0.942308
vt 0.298077 0.250000
vt 0.375000 0.326923
vt 0.625000 0.326923
vt 0.701923 0.250000
vt 0.625000 0.923077
vt 0.701923 0.000000
vt 0.298077 0.000000
vt 0.375000 0.923077
vt 0.278846 0.250000
vt 0.375000 0.346154
vt 0.625000 0.346154
vt 0.721154 0.250000
vt 0.625000 0.903846
vt 0.721154 0.000000
vt 0.278846 0.000000
vt 0.375000 0.903846
vt 0.259615 0.250000
vt 0.375000 0.365385
vt 0.625000 0.365385
vt 0.740384 0.250000
vt 0.625000 0.884615
vt 0.740385 0.000000
vt 0.259615 0.000000
vt 0.375000 0.884615
vt 0.240385 0.250000
vt 0.375000 0.384615
vt 0.625000 0.384615
vt 0.759615 0.250000
vt 0.625000 0.865385
vt 0.759615 0.000000
vt 0.240385 0.000000
vt 0.375000 0.865385
vt 0.221154 0.250000
vt 0.375000 0.403846
vt 0.625000 0.403846
vt 0.778846 0.250000
vt 0.625000 0.846154
vt 0.778846 0.000000
vt 0.221154 0.000000
vt 0.375000 0.846154
vt 0.201923 0.250000
vt 0.375000 0.423077
vt 0.625000 0.423077
vt 0.798077 0.250000
vt 0.625000 0.826923
vt 0.798077 0.000000
vt 0.201923 0.000000
vt 0.375000 0.826923
vt 0.182692 0.250000
vt 0.375000 0.442308
vt 0.625000 0.442308
vt 0.817308 0.250000
vt 0.625000 0.807692
vt 0.817308 0.000000
vt 0.182692 0.000000
vt 0.375000 0.807692
vt 0.163462 0.250000
vt 0.375000 0.461538
vt 0.625000 0.461538
vt 0.836538 0.250000
vt 0.625000 0.788462
vt 0.836538 0.000000
vt 0.163462 0.000000
vt 0.375000 0.788462
vt 0.144231 0.250000
vt 0.375000 0.480769
vt 0.625000 0.480769
vt 0.855769 0.250000
vt 0.625000 0.769231
vt 0.855769 0.000000
vt 0.144231 0.000000
vt 0.375000 0.769231
vt 0.394231 0.000000
vt 0.394231 1.000000
vt 0.500000 0.875000
vt 0.394231 0.750000
vt 0.394231 0.500000
vt 0.500000 0.375000
vt 0.394231 0.250000
vt 0.413462 0.000000
vt 0.413462 1.000000
vt 0.413462 0.750000
vt 0.413462 0.500000
vt 0.413462 0.250000
vt 0.432692 0.000000
vt 0.432692 1.000000
vt 0.432692 0.750000
vt 0.432692 0.500000
vt 0.432692 0.250000
vt 0.451923 0.000000
vt 0.451923 1.000000
vt 0.451923 0.750000
vt 0.451923 0.500000
vt 0.451923 0.250000
vt 0.471154 0.000000
vt 0.471154 1.000000
vt 0.471154 0.750000
vt 0.471154 0.500000
vt 0.471154 0.250000
vt 0.490385 0.000000
vt 0.490385 1.000000
vt 0.490385 0.750000
vt 0.490385 0.500000
vt 0.490385 0.250000
vt 0.509615 0.000000
vt 0.509615 1.000000
vt 0.509615 0.750000
vt 0.509615 0.500000
vt 0.509615 0.250000
vt 0.528846 0.000000
vt 0.528846 1.000000
vt 0.528846 0.750000
vt 0.528846 0.500000
vt 0.528846 0.250000
vt 0.548077 0.000000
vt 0.548077 1.000000
vt 0.548077 0.750000
vt 0.548077 0.500000
vt 0.548077 0.250000
vt 0.567308 0.000000
vt 0.567308 1.000000
vt 0.567308 0.750000
vt 0.567308 0.500000
vt 0.567308 0.250000
vt 0.586538 0.000000
vt 0.586538 1.000000
vt 0.586538 0.750000
vt 0.586538 0.500000
vt 0.586538 0.250000
vt 0.605769 0.000000
vt 0.605769 1.000000
vt 0.605769 0.750000
vt 0.605769 0.500000
vt 0.605769 0.250000
vn 0.637243 0.000000 0.770663
vn 0.637243 0.000000 0.770663
vn -0.465670 0.000000 0.884959
vn -0.465670 0.000000 0.884959
vn 0.002028 0.999852 0.017112
vn -0.001444 0.999999 -0.000551
vn -0.013710 0.999906 0.000343
vn -0.008286 0.999931 0.008286
vn -0.125486 0.454351 -0.881940
vn -0.125486 0.454351 -0.881940
vn 0.798180 0.480284 0.363641
vn 0.798180 0.480284 0.363641
vn -0.001446 -0.999999 -0.000552
vn 0.001696 -0.999848 0.017337
vn -0.008666 -0.999925 0.008666
vn -0.014842 -0.999890 -0.000605
vn 0.503474 -0.851491 -0.146548
vn 0.503474 -0.851491 -0.146548
vn -0.064020 -0.795626 -0.602396
vn -0.064020 -0.795626 -0.602396
vn -0.090417 0.000000 -0.995904
vn -0.097744 0.000000 -0.995212
vn -0.097744 0.000000 -0.995212
vn -0.090417 0.000000 -0.995904
vn -0.018115 0.999830 -0.003480
vn -0.008759 0.999923 -0.008759
vn -0.000814 0.999767 -0.021580
vn 0.867108 -0.000005 -0.498120
vn 0.802426 0.000027 0.596752
vn 0.802426 0.000027 0.596752
vn 0.867108 -0.000005 -0.498120
vn -0.018115 -0.999830 -0.003480
vn -0.000814 -0.999767 -0.021580
vn -0.008759 -0.999923 -0.008759
vn -0.909413 -0.000001 0.415895
vn -0.909413 -0.000001 0.415895
vn 0.215176 0.000005 0.976575
vn 0.215176 0.000005 0.976575
vn -0.003811 0.999843 -0.017289
vn 0.174701 0.000020 0.984622
vn 0.174701 0.000020 0.984621
vn -0.003811 -0.999843 -0.017289
vn -0.961363 0.000016 0.275283
vn -0.961363 0.000016 0.275283
vn -0.007243 0.999824 -0.017324
vn 0.384941 0.000032 0.922941
vn 0.384941 0.000032 0.922941
vn -0.007243 -0.999824 -0.017324
vn -0.970205 -0.000002 -0.242287
vn -0.970205 -0.000002 -0.242287
vn -0.012148 0.999923 0.002331
vn 0.970016 -0.000001 -0.243040
vn 0.970016 -0.000001 -0.243040
vn -0.012148 -0.999923 0.002331
vn -1.000000 -0.000002 0.000000
vn -1.000000 -0.000002 -0.000000
vn -0.018058 0.999837 0.000287
vn 1.000000 -0.000008 -0.000000
vn 1.000000 -0.000008 0.000000
vn -0.018058 -0.999837 0.000287
vn -0.970205 -0.000003 -0.242287
vn -0.970205 -0.000003 -0.242287
vn -0.011112 0.999937 -0.001820
vn 0.985321 0.000005 0.170713
vn 0.985321 0.000005 0.170712
vn -0.011112 -0.999937 -0.001820
vn -0.957904 -0.000012 -0.287087
vn -0.957904 -0.000012 -0.287088
vn -0.017028 0.999855 -0.000115
vn 1.000000 -0.000009 0.000000
vn 1.000000 -0.000009 0.000000
vn -0.017028 -0.999855 -0.000115
vn -0.970205 -0.000002 -0.242287
vn -0.970205 -0.000002 -0.242287
vn -0.011623 0.999931 -0.001610
vn 0.985321 0.000000 0.170713
vn 0.985321 0.000000 0.170713
vn -0.011623 -0.999931 -0.001610
vn -1.000000 -0.000001 0.000000
vn -1.000000 -0.000001 -0.000000
vn -0.016199 0.999869 -0.000138
vn 1.000000 -0.000002 -0.000000
vn 1.000000 -0.000002 0.000000
vn -0.016199 -0.999869 -0.000138
vn -0.970205 -0.000000 -0.242287
vn -0.970205 -0.000000 -0.242287
vn -0.012479 0.999920 -0.002279
vn 0.985321 0.000013 0.170712
vn 0.985321 0.000013 0.170712
vn -0.012479 -0.999920 -0.002279
vn -0.770339 -0.000016 -0.637635
vn -0.770339 -0.000016 -0.637635
vn -0.010977 0.999916 0.006900
vn 0.845542 -0.000008 -0.533909
vn 0.845542 -0.000008 -0.533909
vn -0.010977 -0.999916 0.006900
vn -0.762704 0.000003 0.646748
vn -0.762704 0.000003 0.646748
vn 0.012525 -0.999919 -0.002059
vn 0.001352 -0.999913 -0.013150
vn 0.008286 -0.999931 -0.008286
vn 0.012357 -0.999918 -0.003521
vn 0.012362 -0.999923 0.001006
vn 0.015874 -0.999873 0.001293
vn 0.011899 -0.999929 -0.000143
vn 0.017039 -0.999836 0.006087
vn 0.012378 -0.999918 0.003260
vn 0.017999 -0.999838 -0.000388
vn 0.011227 -0.999931 0.003340
vn 0.013186 -0.999860 0.010289
vn 0.039690 -0.998654 -0.033377
vn 0.016391 -0.999861 0.003152
vn 0.016398 -0.999860 0.003170
vn 0.005375 -0.999919 0.011517
vn -0.905625 0.000000 0.424079
vn -0.739601 0.000000 -0.673045
vn -0.739601 0.000000 -0.673045
vn -0.905625 0.000000 0.424079
vn 0.016391 0.999861 0.003152
vn 0.005375 0.999919 0.011517
vn 0.016398 0.999860 0.003170
vn 0.039691 0.998654 -0.033377
vn 0.013186 0.999860 0.010289
vn 0.011227 0.999931 0.003340
vn 0.017999 0.999838 -0.000388
vn 0.012378 0.999918 0.003260
vn 0.017039 0.999836 0.006087
vn 0.011899 0.999929 -0.000143
vn 0.015874 0.999873 0.001293
vn 0.012362 0.999923 0.001006
vn 0.012357 0.999917 -0.003521
vn 0.012525 0.999919 -0.002059
vn 0.008286 0.999931 -0.008286
vn 0.001352 0.999913 -0.013150
vn -0.991185 0.000000 -0.132487
vn -0.310468 0.000000 0.950584
vn -0.310468 0.000000 0.950584
vn -0.991185 0.000000 -0.132487
vn 0.008332 -0.999917 -0.009858
vn 0.005200 -0.999902 0.012972
vn -0.422527 0.000000 -0.906350
vn -0.422527 0.000000 -0.906350
vn 0.005200 0.999902 0.012972
vn 0.008332 0.999917 -0.009858
vn -0.608711 0.000000 0.793392
vn -0.608711 0.000000 0.793392
vn -0.002525 -0.999917 -0.012611
vn 0.000031 -0.999928 0.012005
vn 0.226297 0.000000 -0.974058
vn 0.226297 0.000000 -0.974058
vn 0.000031 0.999928 0.012005
vn -0.002525 0.999917 -0.012611
vn 0.167943 0.000000 0.985797
vn 0.167943 0.000000 0.985797
vn -0.000029 -0.999876 -0.015768
vn -0.064468 -0.997102 0.040397
vn 0.842960 0.000000 -0.537976
vn 0.842960 0.000000 -0.537976
vn -0.064468 0.997102 0.040397
vn -0.000029 0.999876 -0.015768
vn -0.000000 0.000000 1.000000
vn -0.000000 0.000000 1.000000
vn -0.001740 -0.999931 -0.011653
vn 0.017465 -0.999770 0.012418
vn -0.812748 0.000000 -0.582615
vn -0.812748 0.000000 -0.582615
vn 0.017465 0.999770 0.012418
vn -0.001740 0.999931 -0.011653
vn 0.167943 0.000000 0.985797
vn 0.167943 0.000000 0.985797
vn -0.000066 -0.999863 -0.016576
vn 0.000374 -0.999898 0.014259
vn -0.000000 0.000000 -1.000000
vn -0.000000 0.000000 -1.000000
vn 0.000374 0.999898 0.014259
vn -0.000066 0.999863 -0.016576
vn 0.000000 0.000000 1.000000
vn 0.000000 0.000000 1.000000
vn -0.001789 -0.999937 -0.011114
vn 0.006858 -0.999801 0.018739
vn -0.304824 0.000000 -0.952409
vn -0.304824 0.000000 -0.952409
vn 0.006858 0.999801 0.018739
vn -0.001789 0.999937 -0.011114
vn 0.167943 0.000000 0.985797
vn 0.167943 0.000000 0.985797
vn 0.000250 -0.999846 -0.017534
vn -0.000921 -0.999921 0.012573
vn -0.000000 0.000000 -1.000000
vn -0.000000 0.000000 -1.000000
vn -0.000921 0.999921 0.012573
vn 0.000250 0.999846 -0.017534
vn 0.000000 0.000000 1.000000
vn 0.000000 0.000000 1.000000
vn -0.002401 -0.999944 -0.010328
vn -0.005790 -0.999860 0.015721
vn 0.396136 0.000000 -0.918192
vn 0.396136 0.000000 -0.918192
vn -0.005790 0.999860 0.015721
vn -0.002401 0.999944 -0.010328
vn 0.167943 0.000000 0.985797
vn 0.167943 0.000000 0.985797
vn -0.018925 -0.999794 -0.007300
vn -0.003075 -0.999916 0.012599
vn 0.000000 0.000000 -1.000000
vn 0.000000 0.000000 -1.000000
vn -0.003075 0.999916 0.012599
vn -0.018925 0.999794 -0.007300
vn 0.941698 0.000000 0.336458
vn 0.941698 0.000000 0.336458
vn -0.013491 -0.999889 -0.006394
vn 0.003269 -0.999782 0.020641
vn -0.080915 0.000000 -0.996721
vn -0.080915 0.000000 -0.996721
vn 0.003269 0.999782 0.020641
vn -0.013491 0.999889 -0.006394
vn 0.852047 0.000000 0.523465
vn 0.852047 0.000000 0.523465
s 1
g pCube1
usemtl initialShadingGroup
f 105/172/1 102/168/2 2/2/3 4/4/4
s 2
f 104/171/5 58/116/6 54/105/7 6/6/8
s 3
f 103/170/9 104/171/10 6/6/11 8/8/12
s 4
f 58/113/13 103/170/14 8/8/15 55/107/16
s 5
f 54/106/17 55/108/18 8/11/19 6/12/20
s 6
f 7/13/21 56/109/22 53/103/23 5/14/24
s 2
f 58/116/6 105/172/25 4/4/26 10/17/27
s 5
f 2/2/28 11/20/29 10/18/30 4/4/31
s 4
f 102/169/32 58/113/13 11/19/33 2/10/34
s 6
f 9/15/35 12/21/36 1/1/37 3/3/38
s 2
f 58/116/6 10/17/27 14/25/39
s 5
f 10/18/30 11/20/29 15/28/40 14/26/41
s 4
f 58/113/13 15/27/42 11/19/33
s 6
f 13/23/43 16/29/44 12/21/36 9/15/35
s 2
f 58/116/6 14/25/39 18/33/45
s 5
f 14/26/41 15/28/40 19/36/46 18/34/47
s 4
f 58/113/13 19/35/48 15/27/42
s 6
f 17/31/49 20/37/50 16/29/44 13/23/43
s 2
f 58/116/6 18/33/45 22/41/51
s 5
f 18/34/47 19/36/46 23/44/52 22/42/53
s 4
f 58/113/13 23/43/54 19/35/48
s 6
f 21/39/55 24/45/56 20/37/50 17/31/49
s 2
f 58/116/6 22/41/51 26/49/57
s 5
f 22/42/53 23/44/52 27/52/58 26/50/59
s 4
f 58/113/13 27/51/60 23/43/54
s 6
f 25/47/61 28/53/62 24/45/56 21/39/55
s 2
f 58/116/6 26/49/57 30/57/63
s 5
f 26/50/59 27/52/58 31/60/64 30/58/65
s 4
f 58/113/13 31/59/66 27/51/60
s 6
f 29/55/67 32/61/68 28/53/62 25/47/61
s 2
f 58/116/6 30/57/63 34/65/69
s 5
f 30/58/65 31/60/64 35/68/70 34/66/71
s 4
f 58/113/13 35/67/72 31/59/66
s 6
f 33/63/73 36/69/74 32/61/68 29/55/67
s 2
f 58/116/6 34/65/69 38/73/75
s 5
f 34/66/71 35/68/70 39/76/76 38/74/77
s 4
f 58/113/13 39/75/78 35/67/72
s 6
f 37/71/79 40/77/80 36/69/74 33/63/73
s 2
f 58/116/6 38/73/75 42/81/81
s 5
f 38/74/77 39/76/76 43/84/82 42/82/83
s 4
f 58/113/13 43/83/84 39/75/78
s 6
f 41/79/85 44/85/86 40/77/80 37/71/79
s 2
f 58/116/6 42/81/81 46/89/87
s 5
f 42/82/83 43/84/82 47/92/88 46/90/89
s 4
f 58/113/13 47/91/90 43/83/84
s 6
f 45/87/91 48/93/92 44/85/86 41/79/85
s 2
f 58/116/6 46/89/87 50/97/93
s 5
f 46/90/89 47/92/88 51/100/94 50/98/95
s 4
f 58/113/13 51/99/96 47/91/90
s 6
f 49/95/97 52/101/98 48/93/92 45/87/91
s 2
f 58/116/6 50/97/93 54/105/7
s 5
f 50/98/95 51/100/94 55/108/18 54/106/17
s 4
f 58/113/13 55/107/16 51/99/96
s 6
f 53/103/23 56/109/22 52/101/98 49/95/97
s 4
f 12/22/99 58/113/13 57/112/100 1/9/101
f 16/30/102 58/113/13 12/22/99
f 20/38/103 58/113/13 16/30/102
f 24/46/104 58/113/13 20/38/103
f 28/54/105 58/113/13 24/46/104
f 32/62/106 58/113/13 28/54/105
f 36/70/107 58/113/13 32/62/106
f 40/78/108 58/113/13 36/70/107
f 44/86/109 58/113/13 40/78/108
f 48/94/110 58/113/13 44/86/109
f 52/102/111 58/113/13 48/94/110
f 56/110/112 58/113/13 52/102/111
f 7/7/113 59/114/114 58/113/13 56/110/112
s 3
f 5/5/115 60/115/116 59/114/117 7/7/118
s 2
f 53/104/119 58/116/6 60/115/120 5/5/121
f 49/96/122 58/116/6 53/104/119
f 45/88/123 58/116/6 49/96/122
f 41/80/124 58/116/6 45/88/123
f 37/72/125 58/116/6 41/80/124
f 33/64/126 58/116/6 37/72/125
f 29/56/127 58/116/6 33/64/126
f 25/48/128 58/116/6 29/56/127
f 21/40/129 58/116/6 25/48/128
f 17/32/130 58/116/6 21/40/129
f 13/24/131 58/116/6 17/32/130
f 9/16/132 58/116/6 13/24/131
f 3/3/133 61/117/134 58/116/6 9/16/132
s 1
f 1/1/135 57/111/136 61/117/137 3/3/138
s 4
f 57/112/100 58/113/13 62/119/139
f 58/113/13 59/114/114 63/120/140
s 3
f 59/114/117 60/115/116 64/121/141 63/120/142
s 2
f 60/115/120 58/116/6 64/121/143
f 58/116/6 61/117/134 65/122/144
s 1
f 61/117/137 57/111/136 62/118/145 65/122/146
s 4
f 62/119/139 58/113/13 66/124/147
f 58/113/13 63/120/140 67/125/148
s 3
f 63/120/142 64/121/141 68/126/149 67/125/150
s 2
f 64/121/143 58/116/6 68/126/151
f 58/116/6 65/122/144 69/127/152
s 1
f 65/122/146 62/118/145 66/123/153 69/127/154
s 4
f 66/124/147 58/113/13 70/129/155
f 58/113/13 67/125/148 71/130/156
s 3
f 67/125/150 68/126/149 72/131/157 71/130/158
s 2
f 68/126/151 58/116/6 72/131/159
f 58/116/6 69/127/152 73/132/160
s 1
f 69/127/154 66/123/153 70/128/161 73/132/162
s 4
f 70/129/155 58/113/13 74/134/163
f 58/113/13 71/130/156 75/135/164
s 3
f 71/130/158 72/131/157 76/136/165 75/135/166
s 2
f 72/131/159 58/116/6 76/136/167
f 58/116/6 73/132/160 77/137/168
s 1
f 73/132/162 70/128/161 74/133/169 77/137/170
s 4
f 74/134/163 58/113/13 78/139/171
f 58/113/13 75/135/164 79/140/172
s 3
f 75/135/166 76/136/165 80/141/173 79/140/174
s 2
f 76/136/167 58/116/6 80/141/175
f 58/116/6 77/137/168 81/142/176
s 1
f 77/137/170 74/133/169 78/138/177 81/142/178
s 4
f 78/139/171 58/113/13 82/144/179
f 58/113/13 79/140/172 83/145/180
s 3
f 79/140/174 80/141/173 84/146/181 83/145/182
s 2
f 80/141/175 58/116/6 84/146/183
f 58/116/6 81/142/176 85/147/184
s 1
f 81/142/178 78/138/177 82/143/185 85/147/186
s 4
f 82/144/179 58/113/13 86/149/187
f 58/113/13 83/145/180 87/150/188
s 3
f 83/145/182 84/146/181 88/151/189 87/150/190
s 2
f 84/146/183 58/116/6 88/151/191
f 58/116/6 85/147/184 89/152/192
s 1
f 85/147/186 82/143/185 86/148/193 89/152/194
s 4
f 86/149/187 58/113/13 90/154/195
f 58/113/13 87/150/188 91/155/196
s 3
f 87/150/190 88/151/189 92/156/197 91/155/198
s 2
f 88/151/191 58/116/6 92/156/199
f 58/116/6 89/152/192 93/157/200
s 1
f 89/152/194 86/148/193 90/153/201 93/157/202
s 4
f 90/154/195 58/113/13 94/159/203
f 58/113/13 91/155/196 95/160/204
s 3
f 91/155/198 92/156/197 96/161/205 95/160/206
s 2
f 92/156/199 58/116/6 96/161/207
f 58/116/6 93/157/200 97/162/208
s 1
f 93/157/202 90/153/201 94/158/209 97/162/210
s 4
f 94/159/203 58/113/13 98/164/211
f 58/113/13 95/160/204 99/165/212
s 3
f 95/160/206 96/161/205 100/166/213 99/165/214
s 2
f 96/161/207 58/116/6 100/166/215
f 58/116/6 97/162/208 101/167/216
s 1
f 97/162/210 94/158/209 98/163/217 101/167/218
s 4
f 98/164/211 58/113/13 102/169/32
f 58/113/13 99/165/212 103/170/14
s 3
f 99/165/214 100/166/213 104/171/10 103/170/9
s 2
f 100/166/215 58/116/6 104/171/5
f 58/116/6 101/167/216 105/172/25
s 1
f 101/167/218 98/163/217 102/168/2 105/172/1
